#N canvas 0 22 479 231 10;
#X obj 43 72 route \$1;
#X obj 43 25 inlet OSC;
#X text 106 71 finger id;
#X obj 43 105 unpack f f f f f f f f f f;
#X obj 43 186 outlet xpos;
#X obj 126 187 outlet ypos;
#X obj 284 189 outlet state;
#X obj 205 188 outlet size;
#X obj 370 108 outlet a;
#X text 366 122 for chaining;
#X obj 284 134 sel 4 7;
#X msg 312 161 0;
#X msg 284 160 1;
#X connect 0 0 3 0;
#X connect 0 1 8 0;
#X connect 1 0 0 0;
#X connect 3 0 4 0;
#X connect 3 1 5 0;
#X connect 3 8 10 0;
#X connect 3 9 7 0;
#X connect 10 0 12 0;
#X connect 10 1 11 0;
#X connect 11 0 6 0;
#X connect 12 0 6 0;
