#N canvas 509 115 581 339 10;
#X declare -path rc;
#X obj -93 -125 udpreceive 9109;
#X obj -93 -96 unpackOSC;
#X obj -93 -61 routeOSC /finger;
#X obj -93 -17 finger 0;
#X obj 75 -124 declare -path rc;
#X obj 3 -6 print;
#X obj 3 -33 spigot;
#X obj 36 -58 tgl 15 0 empty empty print_incoming_OSC 17 7 0 10 -262144
-1 -1 0 1;
#X obj -28 186 dac~;
#X obj -7 27 finger 1;
#X obj 77 69 finger 2;
#X obj 161 115 finger 3;
#X obj 284 4 s SCALE;
#X msg 284 -40 0 3 7 5 9;
#X msg 252 -69 clear;
#X obj -7 66 voice -----;
#X obj 77 114 voice -----;
#X obj 161 158 voice -----;
#X obj -93 27 voice -----;
#X msg 355 -16 0 4 7;
#X text 63 -21 x axis - pitch;
#X text 63 -2 y axis - filter cutoff;
#X text 62 21 finger size - filter resonance;
#X text 249 -103 scale quantizing;
#X text 295 -69 12 tone default;
#X text 231 66 Dan Wilcox 2012 GPL v3;
#X text 231 84 danomatika.com | robotcowboy.com;
#X connect 0 0 1 0;
#X connect 1 0 2 0;
#X connect 2 0 3 0;
#X connect 2 0 6 0;
#X connect 3 0 18 0;
#X connect 3 1 18 1;
#X connect 3 2 18 2;
#X connect 3 3 18 3;
#X connect 3 4 9 0;
#X connect 6 0 5 0;
#X connect 7 0 6 1;
#X connect 9 0 15 0;
#X connect 9 1 15 1;
#X connect 9 2 15 2;
#X connect 9 3 15 3;
#X connect 9 4 10 0;
#X connect 10 0 16 0;
#X connect 10 1 16 1;
#X connect 10 2 16 2;
#X connect 10 3 16 3;
#X connect 10 4 11 0;
#X connect 11 0 17 0;
#X connect 11 1 17 1;
#X connect 11 2 17 2;
#X connect 11 3 17 3;
#X connect 13 0 12 0;
#X connect 14 0 12 0;
#X connect 15 0 8 1;
#X connect 16 0 8 0;
#X connect 17 0 8 1;
#X connect 18 0 8 0;
#X connect 19 0 12 0;
