#N canvas 0 22 362 433 10;
#X obj 31 124 rc-sawtooth~_;
#X obj 31 54 maxlib/scale 0 1 30 80;
#X obj 46 337 vline~;
#X msg 246 304 0 10;
#X obj 246 277 sel 0 1;
#X obj 31 365 *~;
#X msg 285 308 0.5 100;
#X obj 31 304 rc-lp~_ 5000 0.5;
#X obj 62 148 sig~ 1;
#X obj 93 199 * 7000;
#X obj 124 250 / 4;
#X obj 124 277 mapping/curve_log;
#X obj 31 22 inlet xpos;
#X obj 93 174 inlet ypos;
#X obj 124 223 inlet size;
#X obj 246 246 inlet state;
#X obj 31 400 outlet~;
#X obj 31 99 rc-scalefilter;
#X obj 112 77 r SCALE;
#X connect 0 0 7 0;
#X connect 1 0 17 0;
#X connect 2 0 5 1;
#X connect 3 0 2 0;
#X connect 4 0 3 0;
#X connect 4 1 6 0;
#X connect 5 0 16 0;
#X connect 6 0 2 0;
#X connect 7 0 5 0;
#X connect 8 0 7 1;
#X connect 9 0 7 2;
#X connect 10 0 11 0;
#X connect 11 0 7 3;
#X connect 12 0 1 0;
#X connect 13 0 9 0;
#X connect 14 0 10 0;
#X connect 15 0 4 0;
#X connect 17 0 0 0;
#X connect 18 0 17 1;
